REM MD5 1c34bd0a01c08cd48290294ea4f5c3b3
FILE "Dengeki PlayStation D20 (Japan).bin" BINARY
  TRACK 01 MODE2/2352
    INDEX 01 00:00:00
  TRACK 02 AUDIO
    INDEX 00 62:53:50
    INDEX 01 62:55:50
  TRACK 03 AUDIO
    INDEX 00 64:33:24
    INDEX 01 64:35:24
  TRACK 04 AUDIO
    INDEX 00 66:56:05
    INDEX 01 66:58:05
REM LEADOUT 70:28:05
